<mxfile host="app.diagrams.net" modified="2021-08-25T03:18:59.445Z" agent="5.0 (Windows NT 10.0; Win64; x64) AppleWebKit/537.36 (KHTML, like Gecko) Chrome/92.0.4515.159 Safari/537.36 Edg/92.0.902.78" etag="jVDL816Tk7SKoVfTOg1Z" version="14.9.8" type="github">
  <diagram id="styI5fg3Mlbr4pc_d02F" name="Page-1">
    <mxGraphModel dx="2249" dy="1931" grid="1" gridSize="10" guides="1" tooltips="1" connect="1" arrows="1" fold="1" page="1" pageScale="1" pageWidth="827" pageHeight="1169" math="0" shadow="0">
      <root>
        <mxCell id="0" />
        <mxCell id="1" parent="0" />
        <mxCell id="FkTYA5YszxBsdHCB7o3I-4" style="edgeStyle=orthogonalEdgeStyle;rounded=0;orthogonalLoop=1;jettySize=auto;html=1;exitX=0.5;exitY=1;exitDx=0;exitDy=0;entryX=0.5;entryY=0;entryDx=0;entryDy=0;" parent="1" source="FkTYA5YszxBsdHCB7o3I-2" target="FkTYA5YszxBsdHCB7o3I-3" edge="1">
          <mxGeometry relative="1" as="geometry" />
        </mxCell>
        <mxCell id="FkTYA5YszxBsdHCB7o3I-6" style="edgeStyle=orthogonalEdgeStyle;rounded=0;orthogonalLoop=1;jettySize=auto;html=1;exitX=0.5;exitY=1;exitDx=0;exitDy=0;entryX=0.5;entryY=0;entryDx=0;entryDy=0;" parent="1" source="FkTYA5YszxBsdHCB7o3I-2" target="FkTYA5YszxBsdHCB7o3I-5" edge="1">
          <mxGeometry relative="1" as="geometry" />
        </mxCell>
        <mxCell id="FkTYA5YszxBsdHCB7o3I-2" value="&lt;h3&gt;项目信息管理&lt;/h3&gt;" style="rounded=0;whiteSpace=wrap;html=1;fillColor=#ffe6cc;strokeColor=#d79b00;" parent="1" vertex="1">
          <mxGeometry x="310" y="200" width="90" height="40" as="geometry" />
        </mxCell>
        <mxCell id="FkTYA5YszxBsdHCB7o3I-3" value="&lt;h4&gt;项目信息&lt;/h4&gt;" style="rounded=0;whiteSpace=wrap;html=1;fillColor=#d5e8d4;strokeColor=#82b366;" parent="1" vertex="1">
          <mxGeometry x="280" y="350" width="60" height="70" as="geometry" />
        </mxCell>
        <mxCell id="FkTYA5YszxBsdHCB7o3I-5" value="&lt;h4&gt;项目模型导入&lt;/h4&gt;" style="rounded=0;whiteSpace=wrap;html=1;fillColor=#d5e8d4;strokeColor=#82b366;" parent="1" vertex="1">
          <mxGeometry x="350" y="350" width="90" height="70" as="geometry" />
        </mxCell>
        <mxCell id="FkTYA5YszxBsdHCB7o3I-7" value="&lt;h3&gt;规则库管理&lt;/h3&gt;" style="rounded=0;whiteSpace=wrap;html=1;fillColor=#ffe6cc;strokeColor=#d79b00;" parent="1" vertex="1">
          <mxGeometry x="800" y="200" width="80" height="40" as="geometry" />
        </mxCell>
        <mxCell id="FkTYA5YszxBsdHCB7o3I-22" style="edgeStyle=orthogonalEdgeStyle;rounded=0;orthogonalLoop=1;jettySize=auto;html=1;exitX=0.5;exitY=1;exitDx=0;exitDy=0;entryX=0.5;entryY=0;entryDx=0;entryDy=0;" parent="1" source="FkTYA5YszxBsdHCB7o3I-8" target="FkTYA5YszxBsdHCB7o3I-15" edge="1">
          <mxGeometry relative="1" as="geometry" />
        </mxCell>
        <mxCell id="FkTYA5YszxBsdHCB7o3I-23" style="edgeStyle=orthogonalEdgeStyle;rounded=0;orthogonalLoop=1;jettySize=auto;html=1;exitX=0.5;exitY=1;exitDx=0;exitDy=0;entryX=0.5;entryY=0;entryDx=0;entryDy=0;" parent="1" source="FkTYA5YszxBsdHCB7o3I-8" target="FkTYA5YszxBsdHCB7o3I-16" edge="1">
          <mxGeometry relative="1" as="geometry" />
        </mxCell>
        <mxCell id="FkTYA5YszxBsdHCB7o3I-24" style="edgeStyle=orthogonalEdgeStyle;rounded=0;orthogonalLoop=1;jettySize=auto;html=1;exitX=0.5;exitY=1;exitDx=0;exitDy=0;" parent="1" source="FkTYA5YszxBsdHCB7o3I-8" target="FkTYA5YszxBsdHCB7o3I-18" edge="1">
          <mxGeometry relative="1" as="geometry" />
        </mxCell>
        <mxCell id="FkTYA5YszxBsdHCB7o3I-25" style="edgeStyle=orthogonalEdgeStyle;rounded=0;orthogonalLoop=1;jettySize=auto;html=1;exitX=0.5;exitY=1;exitDx=0;exitDy=0;entryX=0.5;entryY=0;entryDx=0;entryDy=0;" parent="1" source="FkTYA5YszxBsdHCB7o3I-8" target="FkTYA5YszxBsdHCB7o3I-19" edge="1">
          <mxGeometry relative="1" as="geometry" />
        </mxCell>
        <mxCell id="FkTYA5YszxBsdHCB7o3I-26" style="edgeStyle=orthogonalEdgeStyle;rounded=0;orthogonalLoop=1;jettySize=auto;html=1;exitX=0.5;exitY=1;exitDx=0;exitDy=0;entryX=0.5;entryY=0;entryDx=0;entryDy=0;" parent="1" source="FkTYA5YszxBsdHCB7o3I-8" target="FkTYA5YszxBsdHCB7o3I-20" edge="1">
          <mxGeometry relative="1" as="geometry" />
        </mxCell>
        <mxCell id="FkTYA5YszxBsdHCB7o3I-27" style="edgeStyle=orthogonalEdgeStyle;rounded=0;orthogonalLoop=1;jettySize=auto;html=1;exitX=0.5;exitY=1;exitDx=0;exitDy=0;entryX=0.5;entryY=0;entryDx=0;entryDy=0;" parent="1" source="FkTYA5YszxBsdHCB7o3I-8" target="FkTYA5YszxBsdHCB7o3I-17" edge="1">
          <mxGeometry relative="1" as="geometry" />
        </mxCell>
        <mxCell id="FkTYA5YszxBsdHCB7o3I-29" style="edgeStyle=orthogonalEdgeStyle;rounded=0;orthogonalLoop=1;jettySize=auto;html=1;exitX=0.5;exitY=1;exitDx=0;exitDy=0;entryX=0.5;entryY=0;entryDx=0;entryDy=0;" parent="1" source="FkTYA5YszxBsdHCB7o3I-8" target="FkTYA5YszxBsdHCB7o3I-21" edge="1">
          <mxGeometry relative="1" as="geometry" />
        </mxCell>
        <mxCell id="FkTYA5YszxBsdHCB7o3I-8" value="&lt;h3&gt;BIM指标审查&lt;/h3&gt;" style="rounded=0;whiteSpace=wrap;html=1;fillColor=#ffe6cc;strokeColor=#d79b00;" parent="1" vertex="1">
          <mxGeometry x="630.5" y="200" width="93" height="40" as="geometry" />
        </mxCell>
        <mxCell id="FkTYA5YszxBsdHCB7o3I-35" style="edgeStyle=orthogonalEdgeStyle;rounded=0;orthogonalLoop=1;jettySize=auto;html=1;exitX=0.5;exitY=1;exitDx=0;exitDy=0;entryX=0.5;entryY=0;entryDx=0;entryDy=0;" parent="1" source="FkTYA5YszxBsdHCB7o3I-9" target="FkTYA5YszxBsdHCB7o3I-31" edge="1">
          <mxGeometry relative="1" as="geometry" />
        </mxCell>
        <mxCell id="FkTYA5YszxBsdHCB7o3I-36" style="edgeStyle=orthogonalEdgeStyle;rounded=0;orthogonalLoop=1;jettySize=auto;html=1;exitX=0.5;exitY=1;exitDx=0;exitDy=0;entryX=0.5;entryY=0;entryDx=0;entryDy=0;" parent="1" source="FkTYA5YszxBsdHCB7o3I-9" target="FkTYA5YszxBsdHCB7o3I-32" edge="1">
          <mxGeometry relative="1" as="geometry" />
        </mxCell>
        <mxCell id="FkTYA5YszxBsdHCB7o3I-37" style="edgeStyle=orthogonalEdgeStyle;rounded=0;orthogonalLoop=1;jettySize=auto;html=1;exitX=0.5;exitY=1;exitDx=0;exitDy=0;" parent="1" source="FkTYA5YszxBsdHCB7o3I-9" target="FkTYA5YszxBsdHCB7o3I-33" edge="1">
          <mxGeometry relative="1" as="geometry" />
        </mxCell>
        <mxCell id="FkTYA5YszxBsdHCB7o3I-9" value="&lt;h3&gt;CIM技术审查&lt;/h3&gt;" style="rounded=0;whiteSpace=wrap;html=1;fillColor=#ffe6cc;strokeColor=#d79b00;" parent="1" vertex="1">
          <mxGeometry x="-347.5" y="200" width="95" height="40" as="geometry" />
        </mxCell>
        <mxCell id="FkTYA5YszxBsdHCB7o3I-42" style="edgeStyle=orthogonalEdgeStyle;rounded=0;orthogonalLoop=1;jettySize=auto;html=1;exitX=0.5;exitY=1;exitDx=0;exitDy=0;entryX=0.5;entryY=0;entryDx=0;entryDy=0;" parent="1" source="FkTYA5YszxBsdHCB7o3I-10" target="FkTYA5YszxBsdHCB7o3I-38" edge="1">
          <mxGeometry relative="1" as="geometry" />
        </mxCell>
        <mxCell id="FkTYA5YszxBsdHCB7o3I-43" style="edgeStyle=orthogonalEdgeStyle;rounded=0;orthogonalLoop=1;jettySize=auto;html=1;exitX=0.5;exitY=1;exitDx=0;exitDy=0;entryX=0.5;entryY=0;entryDx=0;entryDy=0;" parent="1" source="FkTYA5YszxBsdHCB7o3I-10" target="FkTYA5YszxBsdHCB7o3I-39" edge="1">
          <mxGeometry relative="1" as="geometry" />
        </mxCell>
        <mxCell id="FkTYA5YszxBsdHCB7o3I-44" style="edgeStyle=orthogonalEdgeStyle;rounded=0;orthogonalLoop=1;jettySize=auto;html=1;exitX=0.5;exitY=1;exitDx=0;exitDy=0;entryX=0.5;entryY=0;entryDx=0;entryDy=0;" parent="1" source="FkTYA5YszxBsdHCB7o3I-10" target="FkTYA5YszxBsdHCB7o3I-40" edge="1">
          <mxGeometry relative="1" as="geometry" />
        </mxCell>
        <mxCell id="FkTYA5YszxBsdHCB7o3I-45" style="edgeStyle=orthogonalEdgeStyle;rounded=0;orthogonalLoop=1;jettySize=auto;html=1;exitX=0.5;exitY=1;exitDx=0;exitDy=0;" parent="1" source="FkTYA5YszxBsdHCB7o3I-10" target="FkTYA5YszxBsdHCB7o3I-41" edge="1">
          <mxGeometry relative="1" as="geometry" />
        </mxCell>
        <mxCell id="FkTYA5YszxBsdHCB7o3I-10" value="&lt;h3&gt;辅助分析&lt;/h3&gt;" style="rounded=0;whiteSpace=wrap;html=1;fillColor=#ffe6cc;strokeColor=#d79b00;" parent="1" vertex="1">
          <mxGeometry x="-80" y="200" width="80" height="40" as="geometry" />
        </mxCell>
        <mxCell id="FkTYA5YszxBsdHCB7o3I-15" value="&lt;h4&gt;建筑单体专项审查&lt;/h4&gt;" style="rounded=0;whiteSpace=wrap;html=1;fillColor=#d5e8d4;strokeColor=#82b366;" parent="1" vertex="1">
          <mxGeometry x="470" y="350" width="50" height="70" as="geometry" />
        </mxCell>
        <mxCell id="FkTYA5YszxBsdHCB7o3I-16" value="&lt;h4&gt;综合技术经济指标审查&lt;/h4&gt;" style="rounded=0;whiteSpace=wrap;html=1;fillColor=#d5e8d4;strokeColor=#82b366;" parent="1" vertex="1">
          <mxGeometry x="530" y="350" width="50" height="70" as="geometry" />
        </mxCell>
        <mxCell id="FkTYA5YszxBsdHCB7o3I-17" value="&lt;h4&gt;物联网专项审查&lt;/h4&gt;" style="rounded=0;whiteSpace=wrap;html=1;fillColor=#d5e8d4;strokeColor=#82b366;" parent="1" vertex="1">
          <mxGeometry x="773" y="350" width="54" height="70" as="geometry" />
        </mxCell>
        <mxCell id="FkTYA5YszxBsdHCB7o3I-18" value="&lt;h4&gt;建筑退让专项审查&lt;/h4&gt;" style="rounded=0;whiteSpace=wrap;html=1;fillColor=#d5e8d4;strokeColor=#82b366;" parent="1" vertex="1">
          <mxGeometry x="590" y="350" width="50" height="70" as="geometry" />
        </mxCell>
        <mxCell id="FkTYA5YszxBsdHCB7o3I-19" value="&lt;h4&gt;公共服务设施专项审查&lt;/h4&gt;" style="rounded=0;whiteSpace=wrap;html=1;fillColor=#d5e8d4;strokeColor=#82b366;" parent="1" vertex="1">
          <mxGeometry x="709.5" y="350" width="54" height="70" as="geometry" />
        </mxCell>
        <mxCell id="FkTYA5YszxBsdHCB7o3I-20" value="&lt;h4&gt;停车设施专项审查&lt;/h4&gt;" style="rounded=0;whiteSpace=wrap;html=1;fillColor=#d5e8d4;strokeColor=#82b366;" parent="1" vertex="1">
          <mxGeometry x="650" y="350" width="54" height="70" as="geometry" />
        </mxCell>
        <mxCell id="FkTYA5YszxBsdHCB7o3I-21" value="&lt;h4&gt;报告生成&lt;/h4&gt;" style="rounded=0;whiteSpace=wrap;html=1;fillColor=#d5e8d4;strokeColor=#82b366;" parent="1" vertex="1">
          <mxGeometry x="840" y="350" width="56" height="70" as="geometry" />
        </mxCell>
        <mxCell id="FkTYA5YszxBsdHCB7o3I-31" value="&lt;h4&gt;天际线分析&lt;/h4&gt;" style="rounded=0;whiteSpace=wrap;html=1;fillColor=#d5e8d4;strokeColor=#82b366;" parent="1" vertex="1">
          <mxGeometry x="-260" y="350" width="60" height="70" as="geometry" />
        </mxCell>
        <mxCell id="FkTYA5YszxBsdHCB7o3I-32" value="&lt;h4&gt;控高分析&lt;/h4&gt;" style="rounded=0;whiteSpace=wrap;html=1;fillColor=#d5e8d4;strokeColor=#82b366;" parent="1" vertex="1">
          <mxGeometry x="-330" y="350" width="60" height="70" as="geometry" />
        </mxCell>
        <mxCell id="FkTYA5YszxBsdHCB7o3I-33" value="&lt;h4&gt;贴线分析&lt;/h4&gt;" style="rounded=0;whiteSpace=wrap;html=1;fillColor=#d5e8d4;strokeColor=#82b366;" parent="1" vertex="1">
          <mxGeometry x="-397.5" y="350" width="60" height="70" as="geometry" />
        </mxCell>
        <mxCell id="FkTYA5YszxBsdHCB7o3I-38" value="&lt;h4&gt;视点查看&lt;/h4&gt;" style="rounded=0;whiteSpace=wrap;html=1;fillColor=#d5e8d4;strokeColor=#82b366;" parent="1" vertex="1">
          <mxGeometry x="-40" y="350" width="60" height="70" as="geometry" />
        </mxCell>
        <mxCell id="FkTYA5YszxBsdHCB7o3I-39" value="&lt;h4&gt;定点观察&lt;/h4&gt;" style="rounded=0;whiteSpace=wrap;html=1;fillColor=#d5e8d4;strokeColor=#82b366;" parent="1" vertex="1">
          <mxGeometry x="-180" y="350" width="60" height="70" as="geometry" />
        </mxCell>
        <mxCell id="FkTYA5YszxBsdHCB7o3I-40" value="&lt;h4&gt;可视域分析&lt;/h4&gt;" style="rounded=0;whiteSpace=wrap;html=1;fillColor=#d5e8d4;strokeColor=#82b366;" parent="1" vertex="1">
          <mxGeometry x="-110" y="350" width="60" height="70" as="geometry" />
        </mxCell>
        <mxCell id="FkTYA5YszxBsdHCB7o3I-41" value="&lt;h4&gt;通视分析&lt;/h4&gt;" style="rounded=0;whiteSpace=wrap;html=1;fillColor=#d5e8d4;strokeColor=#82b366;" parent="1" vertex="1">
          <mxGeometry x="30" y="350" width="60" height="70" as="geometry" />
        </mxCell>
        <mxCell id="cPUTe0ATL_6zvfD-l-DD-12" style="edgeStyle=orthogonalEdgeStyle;rounded=0;orthogonalLoop=1;jettySize=auto;html=1;exitX=0.5;exitY=1;exitDx=0;exitDy=0;entryX=1;entryY=0.5;entryDx=0;entryDy=0;" edge="1" parent="1" source="FkTYA5YszxBsdHCB7o3I-47" target="FkTYA5YszxBsdHCB7o3I-2">
          <mxGeometry relative="1" as="geometry" />
        </mxCell>
        <mxCell id="FkTYA5YszxBsdHCB7o3I-47" value="&lt;h3&gt;其&lt;br&gt;他&lt;br&gt;系&lt;br&gt;统&lt;br&gt;输&lt;br&gt;入&lt;/h3&gt;" style="rounded=0;whiteSpace=wrap;html=1;fillColor=#f8cecc;strokeColor=#b85450;" parent="1" vertex="1">
          <mxGeometry x="475" y="10" width="40" height="100" as="geometry" />
        </mxCell>
        <mxCell id="cPUTe0ATL_6zvfD-l-DD-3" style="edgeStyle=orthogonalEdgeStyle;rounded=0;orthogonalLoop=1;jettySize=auto;html=1;exitX=0.5;exitY=1;exitDx=0;exitDy=0;entryX=0.5;entryY=0;entryDx=0;entryDy=0;" edge="1" parent="1" source="cPUTe0ATL_6zvfD-l-DD-1" target="FkTYA5YszxBsdHCB7o3I-2">
          <mxGeometry relative="1" as="geometry" />
        </mxCell>
        <mxCell id="cPUTe0ATL_6zvfD-l-DD-7" style="edgeStyle=orthogonalEdgeStyle;rounded=0;orthogonalLoop=1;jettySize=auto;html=1;exitX=0.5;exitY=1;exitDx=0;exitDy=0;entryX=0.5;entryY=0;entryDx=0;entryDy=0;" edge="1" parent="1" source="cPUTe0ATL_6zvfD-l-DD-1" target="cPUTe0ATL_6zvfD-l-DD-6">
          <mxGeometry relative="1" as="geometry" />
        </mxCell>
        <mxCell id="cPUTe0ATL_6zvfD-l-DD-15" style="edgeStyle=orthogonalEdgeStyle;rounded=0;orthogonalLoop=1;jettySize=auto;html=1;exitX=0.5;exitY=1;exitDx=0;exitDy=0;" edge="1" parent="1" source="cPUTe0ATL_6zvfD-l-DD-1" target="FkTYA5YszxBsdHCB7o3I-10">
          <mxGeometry relative="1" as="geometry" />
        </mxCell>
        <mxCell id="cPUTe0ATL_6zvfD-l-DD-16" style="edgeStyle=orthogonalEdgeStyle;rounded=0;orthogonalLoop=1;jettySize=auto;html=1;exitX=0.5;exitY=1;exitDx=0;exitDy=0;entryX=0.5;entryY=0;entryDx=0;entryDy=0;" edge="1" parent="1" source="cPUTe0ATL_6zvfD-l-DD-1" target="FkTYA5YszxBsdHCB7o3I-9">
          <mxGeometry relative="1" as="geometry" />
        </mxCell>
        <mxCell id="cPUTe0ATL_6zvfD-l-DD-17" style="edgeStyle=orthogonalEdgeStyle;rounded=0;orthogonalLoop=1;jettySize=auto;html=1;exitX=0.5;exitY=1;exitDx=0;exitDy=0;entryX=0.5;entryY=0;entryDx=0;entryDy=0;" edge="1" parent="1" source="cPUTe0ATL_6zvfD-l-DD-1" target="FkTYA5YszxBsdHCB7o3I-7">
          <mxGeometry relative="1" as="geometry" />
        </mxCell>
        <mxCell id="cPUTe0ATL_6zvfD-l-DD-18" style="edgeStyle=orthogonalEdgeStyle;rounded=0;orthogonalLoop=1;jettySize=auto;html=1;exitX=0.5;exitY=1;exitDx=0;exitDy=0;entryX=0.5;entryY=0;entryDx=0;entryDy=0;" edge="1" parent="1" source="cPUTe0ATL_6zvfD-l-DD-1" target="FkTYA5YszxBsdHCB7o3I-8">
          <mxGeometry relative="1" as="geometry" />
        </mxCell>
        <mxCell id="cPUTe0ATL_6zvfD-l-DD-1" value="&lt;h2&gt;基于BIM的设计方案审查系统&lt;/h2&gt;" style="rounded=0;whiteSpace=wrap;html=1;fillColor=#dae8fc;strokeColor=#6c8ebf;" vertex="1" parent="1">
          <mxGeometry x="200" y="-20" width="130" height="60" as="geometry" />
        </mxCell>
        <mxCell id="cPUTe0ATL_6zvfD-l-DD-4" value="&lt;h4&gt;用&lt;br&gt;户&lt;br&gt;登&lt;br&gt;录&lt;/h4&gt;" style="rounded=0;whiteSpace=wrap;html=1;fillColor=#d5e8d4;strokeColor=#82b366;" vertex="1" parent="1">
          <mxGeometry x="120" y="350" width="50" height="70" as="geometry" />
        </mxCell>
        <mxCell id="cPUTe0ATL_6zvfD-l-DD-5" value="&lt;h4&gt;用&lt;br&gt;户&lt;br&gt;登&lt;br&gt;&lt;span&gt;出&lt;/span&gt;&lt;/h4&gt;" style="rounded=0;whiteSpace=wrap;html=1;fillColor=#d5e8d4;strokeColor=#82b366;" vertex="1" parent="1">
          <mxGeometry x="190" y="350" width="47" height="70" as="geometry" />
        </mxCell>
        <mxCell id="cPUTe0ATL_6zvfD-l-DD-8" style="edgeStyle=orthogonalEdgeStyle;rounded=0;orthogonalLoop=1;jettySize=auto;html=1;exitX=0.5;exitY=1;exitDx=0;exitDy=0;entryX=0.5;entryY=0;entryDx=0;entryDy=0;" edge="1" parent="1" source="cPUTe0ATL_6zvfD-l-DD-6" target="cPUTe0ATL_6zvfD-l-DD-4">
          <mxGeometry relative="1" as="geometry" />
        </mxCell>
        <mxCell id="cPUTe0ATL_6zvfD-l-DD-9" style="edgeStyle=orthogonalEdgeStyle;rounded=0;orthogonalLoop=1;jettySize=auto;html=1;exitX=0.5;exitY=1;exitDx=0;exitDy=0;entryX=0.5;entryY=0;entryDx=0;entryDy=0;" edge="1" parent="1" source="cPUTe0ATL_6zvfD-l-DD-6" target="cPUTe0ATL_6zvfD-l-DD-5">
          <mxGeometry relative="1" as="geometry" />
        </mxCell>
        <mxCell id="cPUTe0ATL_6zvfD-l-DD-6" value="&lt;h3&gt;系统用户&lt;/h3&gt;" style="rounded=0;whiteSpace=wrap;html=1;fillColor=#ffe6cc;strokeColor=#d79b00;" vertex="1" parent="1">
          <mxGeometry x="140" y="200" width="80" height="40" as="geometry" />
        </mxCell>
      </root>
    </mxGraphModel>
  </diagram>
</mxfile>
